<?xml version="1.0" standalone="no"?>
<!DOCTYPE svg PUBLIC "-//W3C//DTD SVG 1.1//EN"
"http://www.w3.org/Graphics/SVG/1.1/DTD/svg11.dtd">

<svg width="470" height="102" view_box="0 0 470 102"
xmlns="http://www.w3.org/2000/svg"
xmlns:link="http://www.w3.org/1999/xlink">\n\n<desc>Généré par Mocodo 2.3.7 le Fri, 26 Feb 2021 00:16:29</desc>

<rect id="frame" x="0" y="0" width="470" height="102" fill="#f7f7f7" stroke="none" stroke-width="0"/>

<!-- Association CONTIENT -->
<line x1="38" y1="51" x2="138" y2="51" stroke="#8073ac" stroke-width="2"/>
<text x="72" y="68.0" fill="#b35806" font-family="Verdana" font-size="12">0,N</text>
<line x1="238" y1="51" x2="138" y2="51" stroke="#8073ac" stroke-width="2"/>
<text x="183" y="68.0" fill="#b35806" font-family="Verdana" font-size="12">1,1</text>
<g id="association-CONTIENT">
	<path d="M 163 26 a 14 14 90 0 1 14 14 V 51 h -78 V 40 a 14 14 90 0 1 14 -14" fill="#b2abd2" stroke="#b2abd2" stroke-width="0"/>
	<path d="M 177 51.0 v 11 a 14 14 90 0 1 -14 14 H 113 a 14 14 90 0 1 -14 -14 V 51.0 H 78" fill="#d8daeb" stroke="#d8daeb" stroke-width="0"/>
	<rect x="99" y="26" width="78" height="50" fill="none" rx="14" stroke="#8073ac" stroke-width="2"/>
	<line x1="99" y1="51" x2="177" y2="51" stroke="#8073ac" stroke-width="1"/>
	<text x="106" y="43.7" fill="#000000" font-family="Verdana" font-size="12">CONTIENT</text>
</g>

<!-- Association POSSEDE -->
<line x1="238" y1="51" x2="336" y2="51" stroke="#8073ac" stroke-width="2"/>
<text x="272" y="68.0" fill="#b35806" font-family="Verdana" font-size="12">0,N</text>
<line x1="433" y1="51" x2="336" y2="51" stroke="#8073ac" stroke-width="2"/>
<text x="378" y="68.0" fill="#b35806" font-family="Verdana" font-size="12">0,N</text>
<g id="association-POSSEDE">
	<path d="M 359 26 a 14 14 90 0 1 14 14 V 51 h -74 V 40 a 14 14 90 0 1 14 -14" fill="#b2abd2" stroke="#b2abd2" stroke-width="0"/>
	<path d="M 373 51.0 v 11 a 14 14 90 0 1 -14 14 H 313 a 14 14 90 0 1 -14 -14 V 51.0 H 74" fill="#d8daeb" stroke="#d8daeb" stroke-width="0"/>
	<rect x="299" y="26" width="74" height="50" fill="none" rx="14" stroke="#8073ac" stroke-width="2"/>
	<line x1="299" y1="51" x2="373" y2="51" stroke="#8073ac" stroke-width="1"/>
	<text x="306" y="43.7" fill="#000000" font-family="Verdana" font-size="12">POSSEDE</text>
</g>

<!-- Entity LISTE -->
<g id="entity-LISTE">
	<g id="frame-LISTE">
		<rect x="9" y="17" width="58" height="25" fill="#fdb863" stroke="#fdb863" stroke-width="0"/>
		<rect x="9" y="42.0" width="58" height="43" fill="#fee0b6" stroke="#fee0b6" stroke-width="0"/>
		<rect x="9" y="17" width="58" height="68" fill="none" stroke="#e08214" stroke-width="2"/>
		<line x1="9" y1="42" x2="67" y2="42" stroke="#e08214" stroke-width="1"/>
	</g>
	<text x="20" y="34.7" fill="#000000" font-family="Verdana" font-size="12">LISTE</text>
	<text x="14" y="59.8" fill="#000000" font-family="Verdana" font-size="12">nom</text>
	<line x1="14" y1="62" x2="42" y2="62" stroke="#000000" stroke-width="1"/>
	<text x="14" y="76.8" fill="#000000" font-family="Verdana" font-size="12">position</text>
</g>

<!-- Entity CARTE -->
<g id="entity-CARTE">
	<g id="frame-CARTE">
		<rect x="209" y="9" width="58" height="25" fill="#fdb863" stroke="#fdb863" stroke-width="0"/>
		<rect x="209" y="34.0" width="58" height="59" fill="#fee0b6" stroke="#fee0b6" stroke-width="0"/>
		<rect x="209" y="9" width="58" height="84" fill="none" stroke="#e08214" stroke-width="2"/>
		<line x1="209" y1="34" x2="267" y2="34" stroke="#e08214" stroke-width="1"/>
	</g>
	<text x="217" y="26.7" fill="#000000" font-family="Verdana" font-size="12">CARTE</text>
	<text x="214" y="51.8" fill="#000000" font-family="Verdana" font-size="12">titre</text>
	<line x1="214" y1="54" x2="240" y2="54" stroke="#000000" stroke-width="1"/>
	<text x="214" y="68.8" fill="#000000" font-family="Verdana" font-size="12">position</text>
	<text x="214" y="85.8" fill="#000000" font-family="Verdana" font-size="12">couleur</text>
</g>

<!-- Entity LABEL -->
<g id="entity-LABEL">
	<g id="frame-LABEL">
		<rect x="405" y="17" width="56" height="25" fill="#fdb863" stroke="#fdb863" stroke-width="0"/>
		<rect x="405" y="42.0" width="56" height="43" fill="#fee0b6" stroke="#fee0b6" stroke-width="0"/>
		<rect x="405" y="17" width="56" height="68" fill="none" stroke="#e08214" stroke-width="2"/>
		<line x1="405" y1="42" x2="461" y2="42" stroke="#e08214" stroke-width="1"/>
	</g>
	<text x="414" y="34.7" fill="#000000" font-family="Verdana" font-size="12">LABEL</text>
	<text x="410" y="59.8" fill="#000000" font-family="Verdana" font-size="12">nom</text>
	<line x1="410" y1="62" x2="438" y2="62" stroke="#000000" stroke-width="1"/>
	<text x="410" y="76.8" fill="#000000" font-family="Verdana" font-size="12">couleur</text>
</g>
</svg>